<svg width="171" height="30" viewBox="0 0 171 30" fill="none" xmlns="http://www.w3.org/2000/svg">
<path d="M47.0365 8.18923H53.4512C57.4913 8.18923 60.403 10.317 60.403 14.5695C60.403 19.8587 56.383 21.1824 52.9516 21.1824H47.0365V8.18923ZM48.61 19.7869H53.2043C54.4907 19.7869 58.7978 19.6261 58.7978 14.515C58.7978 10.7075 56.0987 9.58187 53.4541 9.58187H48.61V19.7869Z" fill="#444955"/>
<path d="M76.3451 15.8387C76.3451 20.5392 72.6812 21.504 69.6604 21.504C66.6397 21.504 62.9758 20.5392 62.9758 15.8387V8.18923H64.5493V15.8387C64.5493 18.8221 66.4617 20.1803 69.6604 20.1803C72.8592 20.1803 74.7716 18.8221 74.7716 15.8387V8.18923H76.3451V15.8387Z" fill="#444955"/>
<path d="M79.7908 8.18923H87.2967C89.3699 8.18923 92.4079 8.63717 92.4079 11.8158C92.4079 14.5322 89.8868 15.319 88.3161 15.3908L92.606 21.1824H90.6592L86.4784 15.4281H81.3672V21.1824H79.7937V8.18923H79.7908ZM81.3644 14.0326H86.9407C89.2091 14.0326 90.909 13.711 90.909 11.7986C90.909 9.88625 89.212 9.58187 86.9407 9.58187H81.3644V14.0326Z" fill="#444955"/>
<path d="M100.968 8.18923H102.897L109.565 21.1824H107.796L106.116 17.8056H97.7344L96.0374 21.1824H94.2858L100.97 8.18923H100.968ZM105.418 16.4101L101.932 9.42107L98.4465 16.4101H105.415H105.418Z" fill="#444955"/>
<path d="M110.136 8.18923L115.873 19.4653L121.628 8.18923H123.362L116.643 21.1824H115.107L108.387 8.18923H110.139H110.136Z" fill="#444955"/>
<path d="M128.864 8.18923H130.793L137.461 21.1824H135.692L134.012 17.8056H125.63L123.933 21.1824H122.182L128.866 8.18923H128.864ZM133.314 16.4101L129.828 9.42107L126.342 16.4101H133.311H133.314Z" fill="#444955"/>
<path d="M139.996 8.18928H142.23L151.898 18.8767V8.18928H153.472V21.1825H151.898L141.498 9.58479V21.1825H139.996V8.18928Z" fill="#444955"/>
<path d="M162.353 9.58188H156.079V8.18636H170.198V9.58188H163.924V21.1796H162.35V9.58188H162.353Z" fill="#444955"/>
<path d="M30.8068 4.78535H12.7531L0.197731 8.29838H17.7878L30.8068 4.78535Z" fill="#9CA1A9"/>
<path d="M14.1472 13.0436L0.197731 16.5566H19.6578L34.0273 13.0436H14.1472Z" fill="#9CA1A9"/>
<path d="M0.197731 24.8149H18.9702L32.8729 21.3019H14.5952L0.197731 24.8149Z" fill="#9CA1A9"/>
<path d="M30.8068 4.78535H12.7531L0.197731 8.29838H17.7878L30.8068 4.78535Z" fill="#9CA1A9" style="mix-blend-mode:hard-light"/>
<path d="M14.1472 13.0436L0.197731 16.5566H19.6578L34.0273 13.0436H14.1472Z" fill="#9CA1A9" style="mix-blend-mode:hard-light"/>
<path d="M0.197731 24.8149H18.9702L32.8729 21.3019H14.5952L0.197731 24.8149Z" fill="#9CA1A9" style="mix-blend-mode:hard-light"/>
<path d="M0.197731 24.8149V29.5601H17.1934C21.9604 29.5601 27.2284 28.4368 30.6014 24.8149H0.197731Z" fill="#3A4453"/>
<path d="M18.3354 0.040123H0.197739V4.78535H30.8068C27.9908 1.62394 23.5816 0.040123 18.3354 0.040123Z" fill="#3A4453"/>
<path d="M32.9943 8.31394C32.9943 8.31394 32.9912 8.3046 32.988 8.29838H0.197731V13.0436H34.0304C33.8998 11.2887 33.5699 9.71106 32.9943 8.31394Z" fill="#3A4453"/>
<path d="M34.0304 16.5566H0.197731V21.3019H32.876C33.461 19.9359 33.8624 18.3645 34.0304 16.5566Z" fill="#3A4453"/>
<path d="M0.197731 24.8149V29.5601H17.1934C21.9604 29.5601 27.2284 28.4368 30.6014 24.8149H0.197731Z" fill="#3A4453"/>
<path d="M18.3354 0.040123H0.197739V4.78535H30.8068C27.9908 1.62394 23.5816 0.040123 18.3354 0.040123Z" fill="#3A4453"/>
<path d="M32.9943 8.31394C32.9943 8.31394 32.9912 8.3046 32.988 8.29838H0.197731V13.0436H34.0304C33.8998 11.2887 33.5699 9.71106 32.9943 8.31394Z" fill="#3A4453"/>
<path d="M34.0304 16.5566H0.197731V21.3019H32.876C33.461 19.9359 33.8624 18.3645 34.0304 16.5566Z" fill="#3A4453"/>
</svg>
