<svg width="171" height="31" viewBox="0 0 171 31" fill="none" xmlns="http://www.w3.org/2000/svg">
<path d="M47.0358 8.66824H53.4505C57.4906 8.66824 60.4023 10.796 60.4023 15.0486C60.4023 20.3377 56.3823 21.6615 52.9509 21.6615H47.0358V8.66824ZM48.6093 20.2659H53.2036C54.49 20.2659 58.7971 20.1051 58.7971 14.994C58.7971 11.1865 56.098 10.0609 53.4534 10.0609H48.6093V20.2659Z" fill="white"/>
<path d="M76.3444 16.3177C76.3444 21.0183 72.6805 21.9831 69.6597 21.9831C66.639 21.9831 62.9751 21.0183 62.9751 16.3177V8.66824H64.5486V16.3177C64.5486 19.3011 66.461 20.6593 69.6597 20.6593C72.8585 20.6593 74.7709 19.3011 74.7709 16.3177V8.66824H76.3444V16.3177Z" fill="white"/>
<path d="M79.7901 8.66824H87.296C89.3692 8.66824 92.4072 9.11619 92.4072 12.2949C92.4072 15.0112 89.8861 15.798 88.3154 15.8698L92.6053 21.6615H90.6585L86.4777 15.9071H81.3665V21.6615H79.793V8.66824H79.7901ZM81.3637 14.5116H86.94C89.2084 14.5116 90.9083 14.19 90.9083 12.2776C90.9083 10.3653 89.2113 10.0609 86.94 10.0609H81.3637V14.5116Z" fill="white"/>
<path d="M100.967 8.66824H102.897L109.564 21.6615H107.795L106.115 18.2847H97.7337L96.0367 21.6615H94.2851L100.97 8.66824H100.967ZM105.418 16.8891L101.932 9.90009L98.4458 16.8891H105.415H105.418Z" fill="white"/>
<path d="M110.135 8.66824L115.872 19.9443L121.627 8.66824H123.361L116.642 21.6615H115.106L108.387 8.66824H110.138H110.135Z" fill="white"/>
<path d="M128.863 8.66824H130.792L137.46 21.6615H135.691L134.011 18.2847H125.63L123.933 21.6615H122.181L128.866 8.66824H128.863ZM133.314 16.8891L129.828 9.90009L126.342 16.8891H133.311H133.314Z" fill="white"/>
<path d="M139.996 8.66829H142.23L151.898 19.3557V8.66829H153.471V21.6615H151.898L141.497 10.0638V21.6615H139.996V8.66829Z" fill="white"/>
<path d="M162.352 10.0609H156.078V8.66537H170.197V10.0609H163.923V21.6586H162.349V10.0609H162.352Z" fill="white"/>
<path d="M30.8061 5.26437H12.7524L0.197029 8.77739H17.7871L30.8061 5.26437Z" fill="#80D3ED"/>
<path d="M14.1465 13.5226L0.197029 17.0356H19.6571L34.0266 13.5226H14.1465Z" fill="#80D3ED"/>
<path d="M0.197029 25.2939H18.9695L32.8722 21.7809H14.5945L0.197029 25.2939Z" fill="#80D3ED"/>
<path style="mix-blend-mode:hard-light" d="M30.8061 5.26437H12.7524L0.197029 8.77739H17.7871L30.8061 5.26437Z" fill="url(#paint0_linear_250_3020)"/>
<path style="mix-blend-mode:hard-light" d="M14.1465 13.5226L0.197029 17.0356H19.6571L34.0266 13.5226H14.1465Z" fill="url(#paint1_linear_250_3020)"/>
<path style="mix-blend-mode:hard-light" d="M0.197029 25.2939H18.9695L32.8722 21.7809H14.5945L0.197029 25.2939Z" fill="url(#paint2_linear_250_3020)"/>
<path d="M0.197029 25.2939V30.0391H17.1927C21.9597 30.0391 27.2277 28.9158 30.6007 25.2939H0.197029Z" fill="white"/>
<path d="M18.3347 0.519135H0.197037V5.26436H30.8061C27.9901 2.10295 23.5809 0.519135 18.3347 0.519135Z" fill="white"/>
<path d="M32.9936 8.79295C32.9936 8.79295 32.9905 8.78361 32.9873 8.77739H0.197029V13.5226H34.0297C33.8991 11.7677 33.5692 10.1901 32.9936 8.79295Z" fill="white"/>
<path d="M34.0297 17.0357H0.197029V21.7809H32.8753C33.4603 20.4149 33.8617 18.8435 34.0297 17.0357Z" fill="white"/>
<path d="M0.197029 25.2939V30.0391H17.1927C21.9597 30.0391 27.2277 28.9158 30.6007 25.2939H0.197029Z" fill="url(#paint3_linear_250_3020)"/>
<path d="M18.3347 0.519135H0.197037V5.26436H30.8061C27.9901 2.10295 23.5809 0.519135 18.3347 0.519135Z" fill="url(#paint4_linear_250_3020)"/>
<path d="M32.9936 8.79295C32.9936 8.79295 32.9905 8.78361 32.9873 8.77739H0.197029V13.5226H34.0297C33.8991 11.7677 33.5692 10.1901 32.9936 8.79295Z" fill="url(#paint5_linear_250_3020)"/>
<path d="M34.0297 17.0357H0.197029V21.7809H32.8753C33.4603 20.4149 33.8617 18.8435 34.0297 17.0357Z" fill="url(#paint6_linear_250_3020)"/>
<defs>
<linearGradient id="paint0_linear_250_3020" x1="0.197029" y1="7.02243" x2="30.8061" y2="7.02243" gradientUnits="userSpaceOnUse">
<stop stop-color="#CBEAF7"/>
<stop offset="1" stop-color="#3A4453"/>
</linearGradient>
<linearGradient id="paint1_linear_250_3020" x1="0.197029" y1="15.2807" x2="34.0266" y2="15.2807" gradientUnits="userSpaceOnUse">
<stop stop-color="#CBEAF7"/>
<stop offset="1" stop-color="#3A4453"/>
</linearGradient>
<linearGradient id="paint2_linear_250_3020" x1="0.197029" y1="23.539" x2="32.8722" y2="23.539" gradientUnits="userSpaceOnUse">
<stop stop-color="#CBEAF7"/>
<stop offset="1" stop-color="#3A4453"/>
</linearGradient>
<linearGradient id="paint3_linear_250_3020" x1="1.55681" y1="43.8579" x2="28.7369" y2="7.41138" gradientUnits="userSpaceOnUse">
<stop stop-color="#798592" stop-opacity="0.8"/>
<stop offset="0.81" stop-color="white"/>
</linearGradient>
<linearGradient id="paint4_linear_250_3020" x1="-9.11606" y1="35.8983" x2="18.064" y2="-0.548155" gradientUnits="userSpaceOnUse">
<stop stop-color="#798592"/>
<stop offset="0.81" stop-color="white"/>
</linearGradient>
<linearGradient id="paint5_linear_250_3020" x1="-4.12191" y1="39.6229" x2="23.0581" y2="3.17646" gradientUnits="userSpaceOnUse">
<stop stop-color="#798592"/>
<stop offset="0.81" stop-color="white"/>
</linearGradient>
<linearGradient id="paint6_linear_250_3020" x1="-0.534203" y1="42.2989" x2="26.6459" y2="5.85247" gradientUnits="userSpaceOnUse">
<stop stop-color="#798592"/>
<stop offset="0.81" stop-color="white"/>
</linearGradient>
</defs>
</svg>
